<svg width="80" height="80" viewBox="0 0 80 80" fill="none" xmlns="http://www.w3.org/2000/svg">
<g id="Frame 305">
<g id="Group 983">
<path id="Vector" d="M18.5056 45.9435C21.726 45.9435 24.4098 43.2599 24.4098 40.0393C24.4098 38.8125 24.0264 37.6624 23.413 36.7423L32.691 27.4643C33.6111 28.0777 34.7612 28.4611 35.988 28.4611C37.5982 28.4611 39.0551 27.8476 40.1285 26.7742L48.0262 32.6784C48.0262 32.6784 48.1028 32.6784 48.1028 32.7551C47.7195 33.5218 47.5661 34.3653 47.5661 35.2855C47.5661 38.5059 50.2497 41.1897 53.4703 41.1897C56.6909 41.1897 59.3745 38.5061 59.3745 35.2855C59.3745 33.7519 58.7611 32.2952 57.7643 31.2983L68.2691 16.883C69.0359 17.2664 69.8793 17.4964 70.7995 17.4964C74.02 17.4964 76.7037 14.8128 76.7037 11.5922C76.7037 8.3716 74.0201 5.68799 70.7995 5.68799C67.5789 5.68799 64.8953 8.3716 64.8953 11.5922C64.8953 13.1257 65.5087 14.5059 66.4289 15.5026L55.8475 29.9179C55.0807 29.5345 54.2373 29.3812 53.3938 29.3812C51.8603 29.3812 50.4801 29.9946 49.4066 30.9147L49.3299 30.838L41.3555 24.9338C41.6623 24.2437 41.8156 23.4003 41.8156 22.5569C41.8156 19.3365 39.132 16.6527 35.9114 16.6527C32.6908 16.6527 30.0072 19.3363 30.0072 22.5569C30.0072 23.7838 30.3906 24.9338 31.004 25.8539L21.8028 35.1319C20.8827 34.5185 19.7326 34.1352 18.5058 34.1352C15.2853 34.1352 12.6016 36.8188 12.6016 40.0394C12.6016 43.26 15.285 45.9435 18.5056 45.9435Z" fill="#FF0000"/>
<path id="Vector_2" d="M75.5459 34.1344H66.038C65.4246 34.1344 64.8878 34.6712 64.8878 35.2846V73.7755H59.2903V53.7669C59.2903 53.1535 58.7536 52.6167 58.1402 52.6167H48.6322C48.0188 52.6167 47.4821 53.1535 47.4821 53.7669V73.7755H41.8846V43.2123C41.8846 42.5989 41.3479 42.0621 40.7344 42.0621H31.1497C30.5363 42.0621 29.9996 42.5989 29.9996 43.2123V73.7755H24.4021V56.0613C24.4021 55.4479 23.8654 54.9112 23.2519 54.9112H13.744C13.1306 54.9112 12.5939 55.4479 12.5939 56.0613V73.7755H5.38624V5.15015C5.38624 4.53674 4.8495 4 4.23609 4C3.62268 4 3.08594 4.53674 3.08594 5.15015V74.8498C3.08594 75.4632 3.62268 76 4.23609 76H75.4693C76.0827 76 76.6195 75.4632 76.6195 74.8498V35.2846C76.6961 34.6712 76.1593 34.1344 75.5459 34.1344Z" fill="#393939"/>
</g>
</g>
</svg>
