<svg width="80" height="80" viewBox="0 0 80 80" fill="none" xmlns="http://www.w3.org/2000/svg">
<g id="Frame 306">
<g id="Group 984">
<path id="Vector" d="M78 35.9998H57.9451C55.9747 27.8531 48.6977 21.802 39.9647 21.802C31.268 21.802 24.0088 27.8358 22.0381 35.982H2C2.14173 34.6926 3.06495 33.6184 4.32482 33.3323L10.1108 31.9C11.1403 31.667 11.9389 30.8972 12.3293 29.9129C12.5249 29.2861 12.7906 28.6599 13.057 28.0688C13.5006 27.0839 13.5006 25.9382 12.9507 25.0611L9.809 19.9228C9.08132 18.6699 9.25848 17.0939 10.288 16.0918L15.9324 10.3969C16.9265 9.37625 18.5058 9.19753 19.7126 9.94945L24.7887 13.1008C25.7119 13.6376 26.83 13.674 27.8058 13.2259C28.3917 12.9572 28.977 12.6891 29.5984 12.474C30.5755 12.098 31.3385 11.2925 31.5873 10.2539L33.0072 4.38157C33.3268 2.98496 34.5689 2 36.0065 2H43.9579C45.3955 2 46.6376 2.98491 46.9749 4.38157L48.3594 10.2539C48.6258 11.2924 49.389 12.098 50.4007 12.456C51.0221 12.689 51.6074 12.9571 52.1934 13.2258C53.1697 13.6733 54.2879 13.6375 55.2104 13.1007L60.2866 9.94936C61.4933 9.19745 63.0555 9.37682 64.0667 10.3968L69.7111 16.0905C70.7052 17.0933 70.8824 18.6687 70.1547 19.9038L67.0484 25.0243C66.4809 25.9377 66.4625 27.0476 66.9067 28.0319C67.1908 28.623 67.4389 29.2492 67.6698 29.9118C68.0603 30.8967 68.8588 31.6664 69.8883 31.8989L75.675 33.3319C76.9348 33.6185 77.858 34.6928 77.9998 36L78 35.9998Z" fill="#393939"/>
<path id="Vector_2" d="M80 39.2674C80 39.8842 79.5003 40.3839 78.8835 40.3839H66.9003C67.291 47.6801 65.6427 52.1425 69.5505 56.0502L71.9997 58.5173H72.0163C72.6497 58.0842 73.383 57.8507 74.1827 57.8507C76.3658 57.8507 78.1329 59.6172 78.1329 61.8009C78.1329 63.9507 76.3664 65.7172 74.1827 65.7172C72.0329 65.7172 70.2664 63.9507 70.2664 61.8009C70.2664 61.2506 70.3828 60.7343 70.5831 60.2679V60.2512L67.9662 57.6343C63.2372 52.9054 65.0794 47.438 64.666 40.3845L56.3496 40.3839V65.8828C56.3496 66.8995 57.1826 67.7159 58.1998 67.7159L62.5999 67.7165C63.1335 66.1662 64.6001 65.0498 66.3166 65.0498C68.4829 65.0498 70.2668 66.8163 70.2668 69C70.2668 71.1498 68.4836 72.9163 66.3166 72.9163C64.4829 72.9163 62.9332 71.6501 62.4995 69.9668H58.1992C55.9489 69.9668 54.1158 68.1337 54.1158 65.8834L54.1165 40.3829H46.0663V69.1502C47.6997 69.6339 48.8827 71.1503 48.8827 72.9334C48.8827 75.0832 47.1162 76.8497 44.9325 76.8497C42.7827 76.8497 41.0162 75.0832 41.0162 72.9334C41.0162 71.1336 42.2158 69.6166 43.8326 69.1334V40.3836H36.0326V62.1835C36.0326 64.3499 35.1995 66.3667 33.6659 67.9003L28.0662 73.5006C28.3163 74.0175 28.4661 74.6004 28.4661 75.2172C28.4661 77.3671 26.6996 79.1336 24.5159 79.1336C22.366 79.1336 20.5995 77.3671 20.5995 75.2172C20.5995 73.0342 22.366 71.267 24.5159 71.267C25.2657 71.267 25.9657 71.4839 26.5493 71.8505L32.083 66.3174C33.1995 65.2175 33.7997 63.7505 33.7997 62.1842V40.3842H25.4993V52.8674C25.4993 55.0338 24.6497 57.0672 23.1326 58.5841L18.6661 63.0506C18.8997 63.5503 19.0161 64.1006 19.0161 64.684C19.0161 66.8338 17.2496 68.601 15.0659 68.601C12.9161 68.601 11.1489 66.8344 11.1489 64.684C11.1489 62.5009 12.9155 60.7338 15.0659 60.7338C15.8324 60.7338 16.5656 60.9673 17.1824 61.3672L21.5492 57.0004C22.6491 55.9005 23.2492 54.4335 23.2492 52.8672V40.384H15.3326V50.0007C15.3326 52.1838 13.5494 53.9675 11.3658 53.9675L8.89991 53.9669C8.38296 55.5338 6.88323 56.6669 5.15001 56.6669C2.98363 56.6669 1.21634 54.9004 1.21634 52.7506C1.21634 50.5675 2.98284 48.8004 5.15001 48.8004C6.96652 48.8004 8.51677 50.0506 8.96648 51.7333H11.3665C12.3166 51.7333 13.0997 50.9502 13.0997 50.0001V40.3834H1.11649C0.499701 40.3834 2.42076e-06 39.8837 2.42076e-06 39.2503C-0.000613862 38.9502 0.116457 38.6834 0.332735 38.4838C0.382645 38.4339 0.432553 38.3839 0.499101 38.334C0.666083 38.2009 0.882358 38.1338 1.11589 38.1338C5.27307 38.135 74.7291 38.1498 78.8823 38.1504C79.4991 38.1504 80 38.6506 80 39.2674Z" fill="#393939"/>
</g>
<path id="Ellipse 180" d="M52 36C50.5197 30.8059 45.7077 27 40 27C34.2923 27 29.4803 30.8059 28 36H52Z" fill="#FF0000"/>
</g>
</svg>
