<svg width="80" height="80" viewBox="0 0 80 80" fill="none" xmlns="http://www.w3.org/2000/svg">
<g id="Frame 308" clip-path="url(#clip0_1328_434)">
<g id="Group 985">
<path id="Vector" d="M53.3789 45.7303C53.2786 45.3497 52.9644 45.0633 52.5762 44.9987L51.1294 44.7578C50.6551 44.6788 50.1918 44.9485 50.0262 45.3999L47.6513 51.8767L47.5433 52.1577C47.299 52.7938 46.5041 53.0046 45.9767 52.5732L45.7171 52.3608L44.1102 51.046C43.3603 50.4324 42.2634 51.1371 42.5098 52.0742L49.8046 79.8164C50.0139 80.6124 51.0415 80.8288 51.5541 80.1849L54.5662 76.4007C54.8404 76.0562 55.3078 75.9316 55.7172 76.0939L60.2016 77.8721C60.9641 78.1744 61.7462 77.4808 61.5372 76.6877L53.3789 45.7303Z" fill="#393939"/>
<path id="Vector_2" d="M33.806 52.5068C33.2563 52.9566 32.426 52.706 32.217 52.0272L32.1706 51.8766L29.6808 45.4892C29.5106 45.0527 29.0602 44.7928 28.5971 44.864L26.8954 45.1256C26.5011 45.1863 26.1805 45.4755 26.0798 45.8616L18.0372 76.6916C17.8304 77.4842 18.612 78.1755 19.3734 77.8736L23.8635 76.0932C24.2729 75.9309 24.7402 76.0555 25.0145 76.4L28.0226 80.1792C28.5359 80.8241 29.5652 80.6059 29.7728 79.8082L36.9448 52.2463C37.1901 51.3038 36.0805 50.6024 35.3344 51.2283L33.9849 52.3604L33.806 52.5068Z" fill="#393939"/>
<path id="Vector_3" d="M63.265 31.9384C63.9083 31.6947 64.1191 30.8893 63.6777 30.3616L59.5478 25.4245C59.2398 25.0563 59.2369 24.5212 59.5408 24.1497L63.5782 19.2148C64.0109 18.6859 63.7975 17.8885 63.1585 17.6464L57.2486 15.4076C56.801 15.2381 56.5363 14.7753 56.6172 14.3036L57.69 8.04456C57.8066 7.36444 57.2156 6.77342 56.5354 6.89L50.2806 7.9621C49.807 8.04326 49.3427 7.77619 49.1747 7.32606L46.9353 1.32438C46.6941 0.677917 45.8861 0.464224 45.3568 0.906912L40.4245 5.03228C40.0563 5.34024 39.5213 5.34315 39.1497 5.0392L34.2204 1.00641C33.6899 0.572399 32.89 0.788611 32.6503 1.43077L30.4053 7.44681C30.2373 7.89692 29.773 8.16397 29.2995 8.08281L23.0446 7.01071C22.3644 6.89413 21.7734 7.48515 21.89 8.16527L22.9621 14.4201C23.0433 14.8937 22.7762 15.358 22.3261 15.526L16.3244 17.7654C15.6779 18.0066 15.4642 18.8146 15.9069 19.3439L20.0323 24.2762C20.3402 24.6444 20.3431 25.1794 20.0392 25.551L16.0064 30.4802C15.5724 31.0108 15.7887 31.8107 16.4308 32.0504L22.4476 34.2954C22.8978 34.4634 23.1648 34.9277 23.0837 35.4013L22.0116 41.6561C21.895 42.3363 22.486 42.9273 23.1661 42.8107L29.421 41.7386C29.8945 41.6574 30.3589 41.9245 30.5268 42.3746L32.7663 48.3763C33.0075 49.0228 33.8155 49.2365 34.3448 48.7938L39.277 44.6684C39.6452 44.3605 40.1803 44.3576 40.5518 44.6615L45.4811 48.6943C46.0116 49.1283 46.8116 48.9121 47.0512 48.2699L49.2963 42.2531C49.4643 41.8029 49.9286 41.5359 50.4021 41.617L56.657 42.6891C57.3371 42.8057 57.9281 42.2147 57.8116 41.5346L56.7388 35.2756C56.6579 34.8039 56.9226 34.341 57.3701 34.1715L63.265 31.9384ZM39.7903 36.7612C33.2607 36.7612 27.9398 31.4403 27.9398 24.9107C27.9398 18.3812 33.2607 13.0602 39.7903 13.0602C46.3198 13.0602 51.6407 18.3812 51.6407 24.9107C51.6407 31.4403 46.3198 36.7612 39.7903 36.7612Z" fill="#393939"/>
<path id="Ellipse 179" d="M46 25C46 28.3137 43.3137 31 40 31C36.6863 31 34 28.3137 34 25C34 21.6863 36.6863 19 40 19C43.3137 19 46 21.6863 46 25Z" fill="#FF0000"/>
</g>
</g>
<defs>
<clipPath id="clip0_1328_434">
<rect width="80" height="80" fill="white"/>
</clipPath>
</defs>
</svg>
