<svg width="80" height="80" viewBox="0 0 80 80" fill="none" xmlns="http://www.w3.org/2000/svg">
<g id="Frame 307" clip-path="url(#clip0_1328_342)">
<path id="Vector" d="M58.0625 66.0002C52.7532 66.0002 47.4766 64.6982 42.2326 62.0944C36.9887 59.4905 32.2778 56.1054 28.1 51.9392C23.9222 47.773 20.5278 43.0752 17.9167 37.8457C15.3056 32.6163 14 27.3543 14 22.0597C14 21.2352 14.2829 20.5408 14.8486 19.9766C15.4144 19.4125 16.1106 19.1304 16.9375 19.1304H26.0764C26.6856 19.1304 27.2188 19.3365 27.6757 19.7488C28.1326 20.1611 28.4264 20.7144 28.5569 21.4088L30.3194 29.611C30.4065 30.2186 30.3956 30.7719 30.2868 31.271C30.178 31.77 29.9495 32.1932 29.6014 32.5403L23.0736 39.1151C25.5106 43.1511 28.2414 46.6664 31.266 49.6608C34.2905 52.6553 37.7176 55.1941 41.5472 57.2772L47.7486 50.8977C48.1838 50.4203 48.6843 50.084 49.25 49.8887C49.8157 49.6934 50.3815 49.6608 50.9472 49.791L58.7153 51.4836C59.3681 51.6138 59.912 51.9392 60.3472 52.46C60.7824 52.9808 61 53.5884 61 54.2827V63.0708C61 63.8954 60.7171 64.5897 60.1514 65.1539C59.5856 65.7181 58.8894 66.0002 58.0625 66.0002Z" fill="#393939"/>
<path id="Vector_2" d="M56.8898 42.1094C56.6722 36.8583 54.7247 32.3991 51.0474 28.732C47.3701 25.0649 42.8986 23.1228 37.6328 22.9058V19C40.8097 19.0868 43.7798 19.7486 46.5432 20.9855C49.3067 22.2223 51.7328 23.8823 53.8217 25.9654C55.9106 28.0485 57.5752 30.4679 58.8154 33.2237C60.0557 35.9795 60.7194 38.9414 60.8064 42.1094H56.8898ZM45.7925 42.1094C45.5749 39.9395 44.7046 38.106 43.1814 36.6087C41.6583 35.1115 39.8087 34.2544 37.6328 34.0374V30.1316C40.8967 30.3486 43.671 31.5854 45.9557 33.8421C48.2405 36.0988 49.4916 38.8546 49.7092 42.1094H45.7925Z" fill="#FF0000"/>
<path id="Ellipse 178 (Stroke)" fill-rule="evenodd" clip-rule="evenodd" d="M40 77C60.4345 77 77 60.4345 77 40C77 19.5655 60.4345 3 40 3C19.5655 3 3 19.5655 3 40C3 60.4345 19.5655 77 40 77ZM40 80C62.0914 80 80 62.0914 80 40C80 17.9086 62.0914 0 40 0C17.9086 0 0 17.9086 0 40C0 62.0914 17.9086 80 40 80Z" fill="#393939"/>
</g>
<defs>
<clipPath id="clip0_1328_342">
<rect width="80" height="80" fill="white"/>
</clipPath>
</defs>
</svg>
