<svg width="678" height="569" viewBox="0 0 678 569" fill="none" xmlns="http://www.w3.org/2000/svg">
<path d="M286.256 501.594H15.667L50.777 415.405L69.3914 405.256L98.4479 337.699L122.056 323.915L144.454 283.32H166.549L215.734 366.328L240.855 379.354L286.256 501.594Z" fill="#EBEBEB"/>
<path d="M15.667 501.594H132.347V434.339L162.312 387.231L148.086 337.699L166.549 283.32H144.454L122.056 323.915L98.4479 337.699L69.3914 405.256L50.777 415.405L15.667 501.594Z" fill="#DBDBDB"/>
<path d="M166.548 501.594L177.898 466.149L196.21 448.124L204.382 426.917L209.981 431.461V451.91L196.21 468.118V501.745L166.548 501.594Z" fill="#DBDBDB"/>
<path d="M188.342 392.381L191.369 378.294L199.541 370.114L203.324 374.962L198.179 381.323L200.6 394.805L188.342 392.381Z" fill="#DBDBDB"/>
<path d="M266.735 501.594H662.48L587.72 345.576L551.853 330.125L513.716 255.6L488.594 228.486L466.499 179.105L440.469 183.347L396.128 286.804L371.309 305.283L331.205 411.77L291.555 450.396L266.735 501.594Z" fill="#EBEBEB"/>
<path d="M466.499 179.105L469.526 256.963L440.318 297.71L453.938 329.065L426.849 397.986L450.458 454.94L436.535 501.594H266.735L291.555 450.396L331.205 411.77L371.309 305.283L396.128 286.804L440.469 183.347L466.499 179.105Z" fill="#DBDBDB"/>
<path d="M459.082 377.84L479.512 342.395L477.848 327.399L485.566 316.644L494.646 347.242L467.103 377.84H459.082Z" fill="#DBDBDB"/>
<path d="M103.895 313.917L104.803 315.735L106.77 316.038L105.408 317.401L105.711 319.371L103.895 318.462L102.079 319.371L102.533 317.401L101.02 316.038L102.987 315.735L103.895 313.917Z" fill="#DBDBDB"/>
<path d="M560.628 313.917L561.536 315.735L563.655 316.038L562.142 317.401L562.444 319.371L560.628 318.462L558.964 319.371L559.266 317.401L557.753 316.038L559.72 315.735L560.628 313.917Z" fill="#DBDBDB"/>
<path d="M15.3652 501.594C222.696 500.685 455.3 500.685 662.631 501.594C455.3 502.503 222.847 502.503 15.3652 501.594Z" fill="#263238"/>
<path d="M671.106 515.227H7.04255C3.25915 515.227 0.232422 512.197 0.232422 508.41C0.232422 504.623 3.25915 501.594 7.04255 501.594H670.955C674.738 501.594 677.765 504.623 677.765 508.41C677.916 512.197 674.738 515.227 671.106 515.227Z" fill="#565656"/>
<path d="M536.114 542.189H117.518C113.735 542.189 110.708 539.16 110.708 535.373C110.708 531.586 113.735 528.556 117.518 528.556H536.114C539.898 528.556 542.924 531.586 542.924 535.373C542.773 539.16 539.746 542.189 536.114 542.189Z" fill="#565656"/>
<path d="M498.43 569H193.488C189.704 569 186.678 565.971 186.678 562.184C186.678 558.397 189.704 555.367 193.488 555.367H498.43C502.214 555.367 505.241 558.397 505.241 562.184C505.241 565.971 502.214 569 498.43 569Z" fill="#565656"/>
<path d="M89.2187 542.189H57.4381C53.6547 542.189 50.6279 539.16 50.6279 535.373C50.6279 531.586 53.6547 528.556 57.4381 528.556H89.2187C93.0021 528.556 96.0288 531.586 96.0288 535.373C96.0288 539.16 93.0021 542.189 89.2187 542.189Z" fill="#565656"/>
<path d="M551.096 569H535.206C531.423 569 528.396 565.971 528.396 562.184C528.396 558.397 531.423 555.367 535.206 555.367H551.096C554.88 555.367 557.907 558.397 557.907 562.184C557.907 565.971 554.88 569 551.096 569Z" fill="#565656"/>
<path d="M314.104 528.708H138.705C140.521 528.708 142.337 527.95 143.548 526.739C144.759 525.527 145.515 523.861 145.515 521.892C145.515 518.105 142.488 515.075 138.705 515.075H314.104C312.288 515.075 310.472 515.833 309.261 517.044C308.05 518.256 307.294 519.922 307.294 521.892C307.294 525.678 310.32 528.708 314.104 528.708Z" fill="#565656"/>
<path d="M496.162 528.708H381.146C382.963 528.708 384.779 527.95 385.989 526.739C387.2 525.527 387.957 523.861 387.957 521.892C387.957 518.105 384.93 515.075 381.146 515.075H496.162C494.346 515.075 492.53 515.833 491.319 517.044C490.109 518.256 489.352 519.922 489.352 521.892C489.503 525.678 492.53 528.708 496.162 528.708Z" fill="#565656"/>
<path d="M409.142 555.67H232.684C234.5 555.67 236.316 554.913 237.526 553.701C238.737 552.489 239.494 550.823 239.494 548.854C239.494 545.067 236.467 542.037 232.684 542.037H409.142C407.326 542.037 405.51 542.795 404.299 544.007C403.088 545.218 402.332 546.885 402.332 548.854C402.483 552.641 405.51 555.67 409.142 555.67Z" fill="#565656"/>
<path d="M60.7637 501.443H482.992L405.962 311.342L368.884 292.56L329.537 201.675L303.658 168.654L280.655 108.518L253.869 113.669L208.165 239.695L182.589 262.265L127.352 392.078L86.3395 439.035L60.7637 501.443Z" fill="#565656"/>
<path d="M280.655 108.518L283.833 203.341L253.717 253.176L267.792 291.196L239.794 375.113L264.311 444.64L249.783 501.443H60.7637L86.3395 439.035L127.352 392.078L182.589 262.265L208.165 239.695L253.869 113.669L280.655 108.518Z" fill="#343333"/>
<path d="M273.241 350.726L294.277 307.556L292.612 289.227L300.33 276.049L309.865 313.463L281.413 350.726H273.241Z" fill="#37474F"/>
<path d="M617.38 501.594H304.72L346.035 399.955L375.091 376.628L405.207 289.076L429.572 271.202L452.727 218.64H475.578L526.427 326.338L552.155 343.001L617.38 501.594Z" fill="#454545"/>
<path d="M304.72 501.594H440.317V414.345L471.19 353.149L456.51 289.076L475.578 218.64H452.727L429.572 271.202L405.207 289.076L375.091 376.628L346.035 399.955L304.72 501.594Z" fill="#282828"/>
<path d="M475.58 501.594L487.233 455.546L506.15 432.219L514.625 404.651L520.527 410.71V437.066L506.15 457.97V501.746L475.58 501.594Z" fill="#263238"/>
<path d="M497.976 360.117L501.154 341.637L509.628 331.034L513.563 337.396L508.266 345.576L510.688 363.147L497.976 360.117Z" fill="#263238"/>
<path d="M248.741 0H245.503V131.256H248.741V0Z" fill="#79C9E8"/>
<path d="M511.016 0H506.969V172.577H511.016V0Z" fill="#79C9E8"/>
<path d="M510.593 154.535L238.92 122.765C227.363 121.462 216.783 129.771 215.48 141.339L195.133 315.342C193.831 326.909 202.133 337.499 213.69 338.803L485.363 370.573C496.92 371.876 507.501 363.567 508.803 352L529.15 177.997C530.452 166.429 522.15 156.002 510.593 154.535Z" fill="#D7F0F9"/>
<path d="M527.197 195.266L529.15 177.996C530.452 166.429 522.151 155.839 510.594 154.535L238.92 122.765C227.363 121.462 216.783 129.771 215.481 141.339L213.527 158.608L527.197 195.266Z" fill="#0582C1"/>
<path d="M245.266 146.878C244.941 149.973 242.011 152.254 238.918 151.929C235.825 151.603 233.546 148.67 233.872 145.574C234.197 142.479 237.127 140.198 240.22 140.524C243.313 140.85 245.754 143.782 245.266 146.878Z" fill="white"/>
<path d="M272.613 150.136C272.287 153.232 269.357 155.513 266.265 155.187C263.172 154.861 260.893 151.929 261.218 148.833C261.544 145.737 264.474 143.457 267.567 143.782C270.659 144.108 272.938 146.878 272.613 150.136Z" fill="#79C9E8"/>
<path d="M300.936 153.395C300.61 156.49 297.681 158.771 294.588 158.446C291.495 158.12 289.216 155.187 289.542 152.092C289.867 148.996 292.797 146.715 295.89 147.041C298.983 147.367 301.262 150.299 300.936 153.395Z" fill="#FFBF4D"/>
<path d="M606.466 500.587H530.287L542.007 472.401L546.727 460.996L548.03 457.901L550.146 452.85L550.634 451.872L555.355 440.468L556.168 438.35L564.47 418.147C565.935 414.563 571.144 414.563 572.609 418.147L580.91 438.35L581.724 440.468L586.445 451.872L586.933 452.85L589.049 457.901L590.351 460.996L595.072 472.401L606.466 500.587Z" fill="#FF0000"/>
<path opacity="0.29" d="M535.333 488.367L530.287 500.587H606.466L601.42 488.367H535.333Z" fill="#F98D2B"/>
<path d="M611.512 493.255H524.264V505.637H611.512V493.255Z" fill="#FF6B00"/>
<path d="M611.513 493.255H592.631V505.637H611.513V493.255Z" fill="#ED6605"/>
<path opacity="0.29" d="M603.54 493.255H592.797L584.17 472.238L579.449 460.833L578.147 457.738L576.031 452.687L575.543 451.709L570.822 440.305L570.008 438.187L563.009 421.243L564.311 417.984C565.776 414.4 570.985 414.4 572.45 417.984L580.751 438.187L581.565 440.305L586.286 451.709L586.774 452.687L588.89 457.738L590.192 460.833L594.913 472.238L603.54 493.255Z" fill="#F98D2B"/>
<path d="M586.285 451.547H550.474L555.195 440.142H581.564L586.285 451.547Z" fill="white"/>
<path d="M594.912 472.238H542.01L546.731 460.833H590.192L594.912 472.238Z" fill="white"/>
<path d="M586.285 451.547H575.541L570.821 440.142H581.564L586.285 451.547Z" fill="#DFDFDF"/>
<path d="M594.914 472.238H584.008L579.45 460.833H590.193L594.914 472.238Z" fill="#DFDFDF"/>
<path d="M132.622 500.587H56.4424L68.1623 472.401L72.8828 460.996L74.185 457.901L76.3011 452.85L76.7894 451.872L81.5099 440.468L82.3238 438.35L90.6253 418.147C92.0903 414.563 97.2992 414.563 98.7641 418.147L107.066 438.35L107.88 440.468L112.6 451.872L113.088 452.85L115.205 457.901L116.507 460.996L121.227 472.401L132.622 500.587Z" fill="#FF0000"/>
<path opacity="0.29" d="M61.4884 488.367L56.4424 500.587H132.622L127.576 488.367H61.4884Z" fill="#F98D2B"/>
<path d="M137.666 493.255H50.418V505.637H137.666V493.255Z" fill="#FF6B00"/>
<path d="M137.667 493.255H118.785V505.637H137.667V493.255Z" fill="#ED6605"/>
<path opacity="0.29" d="M129.692 493.255H118.949L110.322 472.238L105.602 460.833L104.299 457.738L102.183 452.687L101.695 451.709L96.9744 440.305L96.1605 438.187L89.1611 421.243L90.4633 417.984C91.9283 414.4 97.1371 414.4 98.6021 417.984L106.904 438.187L107.718 440.305L112.438 451.709L112.926 452.687L115.043 457.738L116.345 460.833L121.065 472.238L129.692 493.255Z" fill="#F98D2B"/>
<path d="M112.44 451.547H76.6289L81.3494 440.142H107.719L112.44 451.547Z" fill="white"/>
<path d="M121.065 472.238H68.1631L72.8836 460.833H116.345L121.065 472.238Z" fill="white"/>
<path d="M112.439 451.547H101.696L96.9756 440.142H107.719L112.439 451.547Z" fill="#DFDFDF"/>
<path d="M121.065 472.238H110.159L105.602 460.833H116.345L121.065 472.238Z" fill="#DFDFDF"/>
<path d="M507.744 502.158H455.263L463.337 482.74L466.589 474.883L467.486 472.75L468.944 469.271L469.28 468.598L472.532 460.741L473.093 459.281L478.812 445.363C479.821 442.894 483.41 442.894 484.419 445.363L490.138 459.281L490.699 460.741L493.951 468.598L494.287 469.271L495.745 472.75L496.642 474.883L499.894 482.74L507.744 502.158Z" fill="#FF0000"/>
<path opacity="0.29" d="M458.739 493.74L455.263 502.158H507.744L504.268 493.74H458.739Z" fill="#F98D2B"/>
<path d="M511.218 497.107H451.111V505.637H511.218V497.107Z" fill="#FF6B00"/>
<path d="M511.219 497.107H498.211V505.637H511.219V497.107Z" fill="#ED6605"/>
<path opacity="0.29" d="M505.725 497.107H498.323L492.38 482.628L489.128 474.771L488.231 472.638L486.773 469.159L486.437 468.485L483.184 460.628L482.624 459.169L477.802 447.496L478.699 445.251C479.708 442.782 483.297 442.782 484.306 445.251L490.025 459.169L490.586 460.628L493.838 468.485L494.174 469.159L495.632 472.638L496.529 474.771L499.781 482.628L505.725 497.107Z" fill="#850000"/>
<path d="M493.837 468.373H469.166L472.418 460.516H490.585L493.837 468.373Z" fill="white"/>
<path d="M499.779 482.628H463.334L466.586 474.771H496.527L499.779 482.628Z" fill="white"/>
<path d="M493.835 468.373H486.434L483.182 460.516H490.583L493.835 468.373Z" fill="#DFDFDF"/>
<path d="M499.78 482.628H492.267L489.127 474.771H496.528L499.78 482.628Z" fill="#DFDFDF"/>
<path d="M121.231 223.452C126.928 223.452 131.811 219.379 132.625 213.677C132.788 212.699 132.788 211.559 132.788 210.581C132.788 198.036 122.696 187.772 109.999 187.772C109.511 187.772 109.023 187.772 108.534 187.772C107.558 175.39 97.1399 165.614 84.4434 165.614C71.0957 165.614 60.3525 176.367 60.3525 189.727C60.3525 190.379 60.3525 190.868 60.3525 191.519C56.6087 189.401 52.2137 188.261 47.4932 188.424C35.4478 188.912 25.3557 198.688 24.5418 210.744C24.5418 210.907 24.5418 210.907 24.5418 211.07C24.2163 217.587 29.4251 223.127 36.0989 223.127H121.231V223.452Z" fill="#EBEBEB"/>
<path d="M663.439 241.374C681.344 241.374 682.321 214.329 664.416 213.514C663.927 213.514 663.439 213.514 662.951 213.514C659.695 213.514 656.602 214.003 653.835 214.98C651.394 200.317 638.697 189.075 623.396 189.075C607.77 189.075 594.747 200.806 592.794 215.958C589.05 214.166 584.981 213.188 580.586 213.188C578.144 213.188 575.703 213.514 573.424 214.166C557.635 218.239 561.053 241.537 577.168 241.537H663.439V241.374Z" fill="#EBEBEB"/>
<path d="M447.597 107.939C465.502 107.939 466.479 80.8936 448.574 80.079C448.085 80.079 447.597 80.079 447.109 80.079C443.853 80.079 440.761 80.5677 437.993 81.5453C435.552 66.8821 422.855 55.8032 407.554 55.8032C391.928 55.8032 379.068 67.5338 376.952 82.5228C373.209 80.7307 369.139 79.7531 364.744 79.7531C362.302 79.7531 359.861 80.079 357.582 80.7307C341.956 84.8038 345.211 108.102 361.326 108.102H447.597V107.939Z" fill="#EBEBEB"/>
<path d="M458.608 281.02L456.773 296.492L394.406 289.094L394.67 276.694L436.126 224.824L451.956 226.702L431.419 252.81L414.214 275.754L458.608 281.02ZM456.122 227.196L445.844 313.843L425.789 311.465L436.067 224.817L456.122 227.196Z" fill="#79C9E8"/>
<path d="M388.12 255.037L386.242 270.867C385.503 277.095 384.127 282.424 382.113 286.852C380.139 291.285 377.624 294.848 374.568 297.544C371.553 300.244 368.113 302.109 364.249 303.139C360.385 304.169 356.232 304.421 351.788 303.894C348.218 303.47 344.939 302.619 341.953 301.339C338.971 300.02 336.344 298.26 334.07 296.059C331.841 293.823 330.005 291.151 328.564 288.043C327.122 284.935 326.158 281.361 325.672 277.32C325.19 273.24 325.246 268.701 325.839 263.702L327.716 247.872C328.46 241.603 329.816 236.273 331.786 231.88C333.8 227.452 336.334 223.89 339.39 221.195C342.445 218.5 345.905 216.637 349.769 215.607C353.632 214.576 357.786 214.325 362.229 214.852C365.8 215.275 369.056 216.144 371.998 217.459C374.985 218.738 377.612 220.498 379.881 222.739C382.155 224.94 383.992 227.592 385.395 230.695C386.836 233.803 387.798 237.397 388.28 241.477C388.766 245.518 388.713 250.038 388.12 255.037ZM365.897 270.928L368.368 250.099C368.697 247.322 368.826 244.883 368.753 242.782C368.72 240.686 368.491 238.889 368.065 237.39C367.679 235.896 367.121 234.663 366.392 233.691C365.667 232.68 364.792 231.912 363.768 231.389C362.788 230.83 361.664 230.475 360.394 230.324C358.807 230.136 357.339 230.304 355.989 230.828C354.684 231.317 353.51 232.224 352.468 233.548C351.426 234.873 350.526 236.697 349.767 239.021C349.048 241.35 348.484 244.24 348.075 247.692L345.604 268.52C345.27 271.337 345.117 273.814 345.146 275.949C345.218 278.05 345.445 279.867 345.827 281.401C346.252 282.9 346.827 284.155 347.552 285.166C348.282 286.138 349.159 286.886 350.183 287.409C351.207 287.933 352.354 288.27 353.624 288.421C355.171 288.604 356.597 288.452 357.902 287.963C359.207 287.474 360.381 286.567 361.423 285.242C362.51 283.883 363.413 282.039 364.131 279.71C364.895 277.346 365.483 274.419 365.897 270.928Z" fill="#79C9E8"/>
<path d="M316.602 264.175L314.766 279.648L252.399 272.25L252.663 259.85L294.119 207.98L309.949 209.857L289.412 235.966L272.207 258.909L316.602 264.175ZM314.115 210.351L303.837 296.999L283.782 294.62L294.06 207.973L314.115 210.351Z" fill="#79C9E8"/>
</svg>
