<svg width="26" height="26" viewBox="0 0 26 26" fill="none" xmlns="http://www.w3.org/2000/svg">
<g id="Group">
<g id="Group_2">
<g id="Group_3">
<path id="Vector" d="M12.7525 17.4512C10.2171 17.4512 8.15381 15.4366 8.15381 12.961C8.15381 10.4853 10.2171 8.4707 12.7525 8.4707C15.2879 8.4707 17.3511 10.4853 17.3511 12.961C17.3499 15.4366 15.2879 17.4512 12.7525 17.4512ZM12.7525 9.4399C10.7636 9.4399 9.14516 11.0201 9.14516 12.9622C9.14516 14.9042 10.7636 16.4844 12.7525 16.4844C14.7414 16.4844 16.3598 14.9042 16.3598 12.9622C16.3598 11.0201 14.7414 9.4399 12.7525 9.4399Z" fill="#282828"/>
</g>
<g id="Group_4">
<g id="Group_5">
<path id="Vector_2" d="M12.7525 20.1095C12.0796 20.1095 11.4278 20.0188 10.8095 19.853L9.95691 22.1701C10.3126 22.2947 10.6732 22.3952 11.0424 22.4714L11.3969 25.2786C11.4439 25.667 11.7785 25.9428 12.1676 25.9211L15.1838 25.7831C15.5729 25.7601 15.8803 25.4431 15.905 25.0801L15.9633 22.2585C16.6733 22.0298 17.3611 21.7127 17.9931 21.3231L20.2596 23.074C20.5619 23.2857 21.008 23.2567 21.2745 22.9784L23.3018 20.7944C23.567 20.5161 23.5695 20.0648 23.2844 19.8058L21.2832 17.7767C21.4616 17.4403 21.6128 17.1015 21.7392 16.7579C21.7392 16.7567 21.7404 16.7554 21.7404 16.7554L19.4083 15.9375C18.2521 18.3986 15.708 20.1095 12.7525 20.1095Z" fill="#282828"/>
</g>
<g id="Group_6">
<path id="Vector_3" d="M5.43136 12.9612C5.43136 12.5256 5.47349 12.0985 5.55032 11.6847L3.45608 10.9502C3.34331 11.2587 3.25037 11.5758 3.18222 11.894L0.593538 12.2062C0.235411 12.2485 -0.019852 12.5413 0.0012143 12.8837L0.12884 15.5348C0.149906 15.8773 0.442354 16.1471 0.776936 16.1689L3.37925 16.2197C3.58991 16.844 3.88236 17.449 4.26279 18.0117L2.64813 20.0045C2.4226 20.284 2.44986 20.676 2.73611 20.8963L4.7498 22.6786C5.00632 22.9121 5.42268 22.9145 5.66185 22.664L7.53303 20.9047C7.83539 21.0572 8.139 21.1878 8.4488 21.298C8.45375 21.3004 8.45995 21.3016 8.46491 21.3028L9.22825 19.2277C6.96425 18.0117 5.43136 15.6619 5.43136 12.9612Z" fill="#282828"/>
</g>
<g id="Group_7">
<path id="Vector_4" d="M25.3923 10.4787C25.3712 10.1302 25.08 9.83378 24.7318 9.83257L22.0812 9.78055C21.8655 9.1441 21.5681 8.52821 21.1803 7.95347L22.8259 5.92314C23.0552 5.6388 23.0192 5.26007 22.7355 5.01445L20.6833 3.19826C20.4219 2.9599 19.9981 2.95746 19.7539 3.21398L17.8468 5.00597C17.5333 4.84746 17.2186 4.71314 16.8976 4.60061L16.1516 6.62976C18.4825 7.82522 20.0737 10.2113 20.0737 12.9616C20.0737 13.4613 20.0204 13.9502 19.92 14.4208L22.0018 15.1505C22.1171 14.8359 22.21 14.5164 22.2807 14.1885L24.9177 13.8703C25.2832 13.8279 25.5422 13.5291 25.5212 13.1806L25.3923 10.4787Z" fill="#282828"/>
</g>
<g id="Group_8">
<path id="Vector_5" d="M12.7526 5.81286C13.4416 5.81286 14.107 5.90724 14.739 6.08148L15.5767 3.80431C15.5742 3.8031 15.5705 3.80189 15.568 3.80068C15.2111 3.67484 14.848 3.57562 14.4763 3.49818L14.1169 0.652306C14.0686 0.257852 13.7303 -0.0216688 13.3362 0.00132082L10.2791 0.140486C9.88507 0.163476 9.57279 0.485318 9.54801 0.853152L9.48853 3.71356C8.76855 3.94588 8.07089 4.26651 7.43023 4.66096L5.13151 2.88593C4.80932 2.63788 4.38057 2.67661 4.10299 2.98273L2.04716 5.197C1.77825 5.48014 1.77577 5.93628 2.06451 6.20005L4.09307 8.25823C3.9171 8.58735 3.76345 8.9298 3.63333 9.2819C3.63209 9.28553 3.63085 9.29035 3.62961 9.29398L6.02745 10.1349C7.14768 7.59395 9.73636 5.81286 12.7526 5.81286Z" fill="#FF0000"/>
</g>
</g>
</g>
</g>
</svg>
