<svg width="56" height="56" viewBox="0 0 56 56" fill="none" xmlns="http://www.w3.org/2000/svg">
<g id="Group 1474">
<circle id="Ellipse 283" cx="28" cy="28" r="28" fill="#FF0000"/>
<path id="bug-icon" d="M28 42C26.35 42 24.8375 41.5875 23.4625 40.7625C22.0875 39.9375 21 38.85 20.2 37.5H16V34.5H19.15C19.075 33.925 19.0313 33.4313 19.0188 33.0188C19.0063 32.6063 19 32.1 19 31.5H16V28.5H19C19 27.825 19.0063 27.2688 19.0188 26.8313C19.0313 26.3938 19.075 25.95 19.15 25.5H16V22.5H20.2C20.55 21.9 20.9438 21.3563 21.3813 20.8688C21.8188 20.3813 22.325 19.95 22.9 19.575L20.5 17.1L22.6 15L25.825 18.225C26.4 18.025 27.1125 17.925 27.9625 17.925C28.8125 17.925 29.525 18.025 30.1 18.225L33.4 15L35.5 17.1L33.025 19.575C33.6 19.95 34.1188 20.3813 34.5813 20.8688C35.0438 21.3563 35.45 21.9 35.8 22.5H40V25.5H36.85C36.925 26.075 36.9688 26.55 36.9813 26.925C36.9938 27.3 37 27.825 37 28.5H40V31.5H37C37 32.1 36.9938 32.6063 36.9813 33.0188C36.9688 33.4313 36.925 33.925 36.85 34.5H40V37.5H35.8C35 38.85 33.9125 39.9375 32.5375 40.7625C31.1625 41.5875 29.65 42 28 42ZM25 34.5H31V31.5H25V34.5ZM25 28.5H31V25.5H25V28.5Z" fill="white"/>
</g>
</svg>
