<svg width="48" height="48" viewBox="0 0 48 48" fill="none" xmlns="http://www.w3.org/2000/svg">
<g id="Group 941">
<circle id="Ellipse 143" cx="24" cy="24" r="24" fill="#282828"/>
<path id="Vector" d="M39 19.4088C38.9786 20.8655 38.2263 22.2185 36.9878 23.0267C35.7498 23.8348 34.1849 23.9944 32.8033 23.4535C31.4216 22.9126 30.4008 21.7405 30.073 20.3192C29.9599 19.8229 29.5099 19.4701 28.9904 19.4701C28.4708 19.4701 28.021 19.8231 27.9079 20.3192C27.6095 21.6395 26.7104 22.7534 25.4678 23.3427C24.2252 23.9321 22.7748 23.9321 21.5322 23.3427C20.2896 22.7534 19.3903 21.6397 19.0921 20.3192C18.979 19.8229 18.5292 19.4701 18.0096 19.4701C17.4904 19.4701 17.0401 19.8231 16.927 20.3192C16.5992 21.7405 15.5781 22.9125 14.1967 23.4535C12.815 23.9944 11.2502 23.8348 10.0122 23.0267C8.77366 22.2185 8.02115 20.8655 8 19.4088L8.70246 13.3714C8.77985 12.717 9.10056 12.1135 9.60362 11.6762C10.1067 11.2385 10.7567 10.998 11.4294 11H35.5705C36.2431 10.998 36.8932 11.2385 37.3962 11.6762C37.8993 12.1135 38.22 12.717 38.2974 13.3714L39 19.4088ZM28.9879 22.6717C27.8154 24.5384 25.7379 25.6759 23.4997 25.6759C21.2614 25.6759 19.184 24.5386 18.0115 22.6717C17.2223 23.93 16.0066 24.8769 14.5767 25.3468C13.1468 25.8168 11.5937 25.7798 10.1891 25.2423V35.7568C10.1891 36.3516 10.4303 36.9224 10.8601 37.343C11.2896 37.7637 11.8723 38 12.4801 38H18.4523L18.4525 29.4635H28.5468V38H34.519C35.1268 38 35.7097 37.7638 36.139 37.343C36.5688 36.9222 36.8101 36.3514 36.8101 35.7568V25.2423C35.4056 25.7798 33.8523 25.8168 32.4224 25.3468C30.9925 24.877 29.7768 23.9302 28.9876 22.6717H28.9879Z" fill="white"/>
</g>
</svg>
