<svg width="164" height="116" viewBox="0 0 164 116" fill="none" xmlns="http://www.w3.org/2000/svg">
<g id="Frame 36">
<g id="Group">
<path id="Vector" d="M88.2638 38.5081V29.3875C88.2638 28.1148 87.2419 27.0928 85.9692 27.0928H64.0257C62.7531 27.0928 61.7311 28.1148 61.7311 29.3875V38.5081C61.7311 39.7807 62.7531 40.8027 64.0257 40.8027H85.9692C87.2419 40.8027 88.2638 39.7807 88.2638 38.5081ZM85.7571 38.296H64.2378V29.5996H85.7571V38.296Z" fill="#282828"/>
<path id="Vector_2" d="M67.0915 33.3211H82.5369C84.1759 33.3211 84.1759 30.8144 82.5369 30.8144H67.0915C65.4718 30.8144 65.4525 33.3018 67.0915 33.3211Z" fill="#282828"/>
<path id="Vector_3" d="M67.0915 37.0812H76.3664C78.0055 37.0812 78.0055 34.5744 76.3664 34.5744H67.0915C65.4718 34.5744 65.4525 37.0812 67.0915 37.0812Z" fill="#282828"/>
<path id="Vector_4" d="M11.423 32.8776C6.93013 36.1556 8.1835 43.0202 14.9709 45.0063C12.0786 48.0337 14.2189 52.6036 18.7696 52.5843C17.4391 54.5897 17.9212 57.887 23.2624 58.7162C24.4965 58.8897 25.962 58.9861 27.466 58.9861C34.7934 58.9669 42.6607 56.8843 40.6746 46.1825C40.7903 38.9516 28.9315 18.8978 14.084 19.2449C8.12565 20.4018 9.01265 26.013 10.8445 28.6162C10.9602 28.809 12.1364 30.3709 14.1032 32.2991C13.0813 32.222 12.1557 32.3955 11.423 32.8776ZM21.8934 34.7866C16.0122 31.8942 7.50861 23.3327 14.6239 21.6744C25.8849 21.0767 38.7656 39.8386 38.1871 46.5296C39.4019 51.2924 37.4737 54.2426 34.0028 55.6117C33.4629 56.1902 20.775 57.8678 20.6593 54.2812C20.6593 54.2619 21.0835 53.1242 25.3064 52.0444C25.962 51.8709 26.3669 51.2346 26.2319 50.579C26.097 49.9233 25.4414 49.4799 24.805 49.5955C17.1884 50.8489 16.61 49.4991 16.3014 48.7664C15.7037 46.7032 17.6705 45.8547 20.0037 45.4305C21.5463 45.1991 21.3149 42.8659 19.753 42.9431C11.9822 43.5215 9.32117 37.8139 12.8113 34.9794C13.6212 34.4588 16.1279 34.7866 20.0037 36.6377C21.9319 38.1032 23.571 35.9435 21.8934 34.7866Z" fill="#282828"/>
<path id="Vector_5" d="M126.559 57.887C129.046 59.0633 135.043 59.1982 138.379 58.7162C143.72 57.887 144.183 54.5704 142.872 52.5843C147.423 52.6036 149.563 48.0529 146.671 45.0063C154.653 43.0395 154.808 32.4919 147.538 32.2606C149.524 30.3323 150.662 28.7897 150.797 28.5776C152.61 26.0323 153.535 20.3632 147.558 19.2063C132.691 18.8592 120.87 38.8937 120.967 46.144C119.058 53.2014 123.956 56.9807 126.559 57.887ZM123.184 48.1301C124.206 41.709 123.84 39.8 131.804 29.9659C134.484 27.2664 142.332 20.6525 146.998 21.6744C150.585 22.2722 149.871 25.261 148.695 27.1892C148.387 27.5942 144.974 32.0292 140.5 34.4009C139.632 34.7094 138.668 35.4229 139.17 36.4449C139.671 37.4861 140.847 37.139 141.638 36.6377C145.514 34.7866 148.02 34.4395 148.83 34.9794C152.32 37.8139 149.64 43.5215 141.888 42.9431C140.327 42.8659 140.095 45.2184 141.638 45.4305C143.971 45.8547 145.938 46.7032 145.34 48.7664C145.031 49.4991 144.453 50.8682 136.836 49.5955C136.181 49.4798 135.544 49.9233 135.41 50.579C135.275 51.2346 135.679 51.8902 136.335 52.0444C140.558 53.1242 140.982 54.2619 140.982 54.2619C141.059 55.2839 140.057 55.9395 138.051 56.2287C130.84 56.9036 122.336 56.5758 123.184 48.1301Z" fill="#282828"/>
<path id="Vector_6" d="M110.593 23.6413H50.5472C46.9992 23.6413 44.1068 26.5336 44.1068 30.0816V65.9086C44.1068 69.4565 46.9992 72.3489 50.5472 72.3489H61.1526C59.2629 81.8938 65.1826 91.6315 74.0333 94.601H87.1261C95.9768 91.6315 101.916 81.8938 100.007 72.3489H110.612C114.16 72.3489 117.053 69.4565 117.053 65.9086V30.0816C117.053 26.5336 114.16 23.6413 110.593 23.6413ZM57.5275 69.8615H50.5279C48.349 69.8615 46.5943 68.0875 46.5943 65.9278V30.0816C46.5943 27.9027 48.3683 26.148 50.5279 26.148H57.5275V69.8615ZM80.5701 93.2319C57.8167 92.4606 57.6431 59.5839 80.5701 58.7162C87.7817 58.6969 94.1835 63.2283 96.7095 69.8615C101.087 80.814 92.4095 93.4633 80.5701 93.2319ZM114.546 65.9086C114.546 68.0875 112.772 69.8422 110.612 69.8422H99.3705C98.31 66.5835 96.4203 63.6911 93.9521 61.4157L95.6104 59.9888C96.266 60.7601 97.1723 61.9171 98.2329 60.9915C98.7342 60.5287 98.7728 59.7382 98.31 59.2175L94.8006 55.3996C93.6822 54.2041 91.8503 55.8816 92.9495 57.0964L93.9136 58.1377L91.966 59.8153C89.0544 57.7521 85.5835 56.4601 81.8234 56.2287V52.4301H85.7185C86.4127 52.4301 86.9719 51.8709 86.9719 51.1767C86.9719 50.4825 86.4127 49.9233 85.7185 49.9233H75.4409C74.7467 49.9233 74.1876 50.4825 74.1876 51.1767C74.1876 51.8709 74.7467 52.4301 75.4409 52.4301H79.336V56.2287C71.1216 56.7494 64.2571 62.3027 61.7889 69.8422H60.0535V26.148H110.612C112.791 26.148 114.546 27.922 114.546 30.0816V65.9086Z" fill="#282828"/>
<path id="Vector_7" d="M90.462 84.979C89.9992 85.4996 89.2086 85.5189 88.688 85.0561L79.7216 76.8803C79.3745 76.5718 79.2395 76.0897 79.3552 75.6462C80.0108 73.0624 80.9171 69.4951 81.5727 66.9113C81.9777 65.3301 84.4072 65.9278 84.0023 67.5283C83.4046 69.8808 82.5561 73.1781 81.9584 75.5305L90.3656 83.205C90.9055 83.6871 90.9247 84.4776 90.462 84.979Z" fill="#282828"/>
<path id="Vector_8" d="M120.466 95.8736C120.466 96.5678 119.906 97.127 119.212 97.127H53.9987C53.3046 97.127 52.7454 96.5678 52.7454 95.8736C52.7454 95.1794 53.3046 94.6202 53.9987 94.6202H119.232C119.906 94.6202 120.466 95.1794 120.466 95.8736Z" fill="#282828"/>
<path id="Vector_9" d="M40.8481 94.6202H8.22204C6.60231 94.6202 6.58303 97.127 8.22204 97.127H40.8288C42.4678 97.127 42.4871 94.6202 40.8481 94.6202Z" fill="#282828"/>
<path id="Vector_10" d="M49.3132 94.6202H46.1702C44.5312 94.6202 44.5312 97.127 46.1702 97.127H49.3132C50.9522 97.127 50.9522 94.6202 49.3132 94.6202Z" fill="#282828"/>
<path id="Vector_11" d="M155.155 94.6202H126.212C124.573 94.6202 124.573 97.127 126.212 97.127H155.155C156.794 97.127 156.813 94.6202 155.155 94.6202Z" fill="#282828"/>
<path id="Vector_12" d="M132.594 79.8498C132.44 71.4619 119.964 71.4619 119.829 79.8498C119.983 88.2377 132.459 88.2377 132.594 79.8498ZM122.336 79.8498C122.432 74.7592 130.01 74.7592 130.088 79.8498C130.01 84.9404 122.432 84.9404 122.336 79.8498Z" fill="#282828"/>
<path id="Vector_13" d="M13.0234 71.1148C13.1777 79.5027 25.6535 79.5027 25.7885 71.1148C25.6342 62.7077 13.1584 62.7077 13.0234 71.1148ZM23.2817 71.1148C23.1853 76.2054 15.6073 76.2054 15.5302 71.1148C15.6073 66.005 23.1853 66.005 23.2817 71.1148Z" fill="#282828"/>
<path id="Vector_14" d="M140.481 67.2198C140.519 69.7458 144.299 69.7458 144.337 67.2198C144.279 64.6938 140.519 64.6938 140.481 67.2198Z" fill="#282828"/>
<path id="Vector_15" d="M39.8069 17.8565C42.3329 17.8179 42.3329 14.0386 39.8069 14C37.2616 14.0578 37.2616 17.8179 39.8069 17.8565Z" fill="#282828"/>
</g>
</g>
</svg>
