<svg width="164" height="116" viewBox="0 0 164 116" fill="none" xmlns="http://www.w3.org/2000/svg">
<g id="Frame 35">
<g id="Group 1584">
<g id="Group">
<g id="Group_2">
<path id="Vector" d="M57.5306 76.226C57.3428 76.4513 57.1738 76.6955 57.0048 76.9396C57.155 76.6955 57.3052 76.4513 57.4742 76.2072L57.5306 76.226Z" fill="#282828"/>
</g>
<g id="Group_3">
<path id="Vector_2" d="M129.136 77.6344C127.803 70.0476 120.103 62.2354 111.333 66.4795C110.094 62.7612 108.704 59.3058 107.239 55.8316C107.859 55.8128 108.385 55.2682 108.385 54.6485V45.7471C108.366 43.0992 102.545 45.672 100.76 48.1884C97.9248 46.179 96.6478 45.3339 94.9201 45.1274C92.6854 41.5593 85.4365 43.9255 81.4178 43.8692C78.5633 43.8316 77.3051 41.2213 76.2722 38.8551C75.0704 36.6203 75.0704 33.5781 72.798 31.7565C74.9577 30.1227 75.5774 28.4701 75.5586 25.5593C79.2018 24.9396 79.0516 21.672 75.4647 21.7659C75.1455 21.1086 74.6572 20.2072 74.2816 19.794C73.3239 18.6109 69.7182 18.3856 67.9342 19.794C66.3004 21.4091 65.9624 25.5217 67.1642 26.1415C67.352 28.0382 67.352 28.8269 68.3661 30.5734C67.6901 31.0053 67.0703 31.625 66.507 32.4325V27.6062C66.507 26.949 65.9811 26.4231 65.3239 26.4231H49.8873C49.23 26.4231 48.7042 26.949 48.7042 27.6062V41.8785C47.6525 42.0663 44.4037 41.2025 44.4412 43.0616V60.8645C44.4412 61.5217 44.9671 62.0476 45.6243 62.0476H60.9483C58.075 66.4231 54.8638 71.7377 55.1267 75.5311C52.5539 79.4185 50.9952 83.9255 51.8215 84.9959C52.291 85.7283 54.6948 85.2964 55.3896 85.4091C57.6995 99.6062 78.0187 99.8879 80.7229 85.7846H102.676C106.77 103.719 132.948 96.6203 127.371 79.0429C128.235 79.2119 129.361 78.7236 129.136 77.6344ZM106 47.3809V53.0522C104.591 52.4138 103.84 50.6485 102.601 49.7846C102.995 48.7706 104.591 47.9067 106 47.3809ZM93.399 50.1978C98.0938 57.841 103.314 69.5217 100.986 77.9349C98.7323 75.7001 95.4272 76.0757 94.5633 72.395C94.4882 72.1508 94.338 71.9443 94.1502 71.794C94.8262 71.8128 95.4835 71.4372 95.5586 70.7424C96.5539 60.8832 92.3849 52.9584 81.5492 50.9114C84.3473 50.5358 87.3145 49.4842 89.9436 48.8269C91.4084 50.7236 92.8732 50.3856 93.399 50.1978ZM88.6666 63.287C84.9295 53.4654 72.7605 56.395 66.6384 57.7471C64.7605 57.2964 65.061 54.3856 65.1924 52.902C65.23 52.7142 65.2863 52.5264 65.3239 52.3574C78.2441 51.8879 94.3004 52.0757 93.3051 69.4278C92.3286 69.4466 90.7699 69.4278 89.1736 69.4091C89.3051 67.7377 89.3802 64.9584 88.6666 63.287ZM88.6854 73.7846C88.8544 73.8785 89.1736 73.9161 89.3802 73.9537V73.9161H92.5915C93.3614 76.3011 95.5962 77.8034 97.9436 78.6861C94.9577 78.6861 91.4647 78.3856 88.2347 78.1227L88.6854 73.7846ZM72.9671 27.5687C71.1642 32.2635 69.3239 28.5076 69.4553 25.4654C70.9577 25.3152 72.4037 25.2776 73.0985 25.4091C73.3051 26.1227 73.0046 27.6626 72.9671 27.5687ZM68.9107 23.1368C69.0422 22.2917 69.2863 21.5969 69.6431 21.503C70.5633 21.2025 71.8966 21.1274 72.4976 21.4466C72.6854 21.6532 73.2675 22.7424 73.568 23.3997C71.7088 23.3997 69.9436 23.5875 68.8544 23.7189C68.8732 23.5123 68.8919 23.3246 68.9107 23.1368ZM66.9952 41.4466C67.183 38.01 68.3098 33.2213 69.9999 33.2213C72.7417 33.1461 72.8356 37.7283 74.075 39.8128C78.3943 50.9114 85.3427 43.7377 92.5351 46.0476C93.3427 46.3668 92.9483 47.9067 92.5915 47.963C92.4225 48.0757 91.7464 47.3058 91.5774 46.9302C90.5633 45.6907 89.3239 46.6485 87.014 47.1555C84.798 47.794 81.7746 48.6579 79.7464 48.6579C74.9952 48.7142 66.4694 47.9818 66.9952 41.4466ZM64.5351 50.0476C64.6103 48.7518 64.7605 46.8363 65.061 44.7518C66.1502 47.8879 69.3614 49.5969 72.4412 50.3105C70.4319 50.3668 66.4882 50.4795 64.5164 50.5358C64.5164 50.3856 64.5351 50.2353 64.5351 50.0476ZM51.014 28.8081H64.0844V37.7095C63.7088 38.949 63.3708 40.4513 63.1079 41.8785H51.014V28.8081ZM46.7699 59.6814V44.2447H62.7323C62.338 49.071 61.399 52.0569 62.7887 52.8457C62.8074 52.7142 62.8074 52.6767 62.8262 52.5828C62.4694 54.348 62.8826 57.2588 63.3333 58.7987C63.0891 59.0804 62.8638 59.3433 62.6009 59.6626H46.7699V59.6814ZM78.2628 85.8034C76.0093 96.6954 59.6337 96.395 57.7746 85.4278H78.338C78.3192 85.5593 78.3004 85.672 78.2628 85.8034ZM54.1877 83.0429C54.5633 81.3527 56.0844 78.0851 57.4929 76.1884L57.5492 76.2072C60.9483 71.5687 67.5774 69.9161 73.061 71.625C77.7182 72.6767 81.061 78.8551 81.3614 83.0241H54.1877V83.0429ZM83.784 83.4185C83.014 70.4044 68.8732 63.8128 57.9436 72.3762C58.6948 69.9537 60.0657 68.0757 61.4553 65.6156C62.7135 63.6062 63.9342 61.503 65.5492 59.9255C66.8638 60.3199 67.2581 60.0757 69.4365 59.6438C74.3192 58.3856 83.7464 56.8269 86.4694 64.226C87.5774 67.7753 85.9248 75.2494 85.737 79.0429C85.6619 79.7565 86.2441 80.3762 86.9389 80.3574C89.6431 80.6391 93.8497 80.902 96.6854 81.0335C100.723 81.3903 103.352 80.9959 103.671 76.4513C105.361 68.5077 99.3145 54.5358 95.0704 48.4513C95.183 48.1884 95.2581 47.9067 95.3145 47.625C97.4178 48.4138 102.075 51.9255 103.822 54.6673C104.93 56.1696 105.549 57.8598 106.225 59.6062C107.728 63.3809 109.437 67.5499 110.282 71.625C111.314 75.0992 110.225 84.0006 106.244 83.3997C106.244 83.4185 83.784 83.4185 83.784 83.4185ZM115.258 93.9537C110.282 93.9537 106.113 90.4607 105.042 85.8034C109.38 86.1602 111.408 84.1321 112.516 79.0616H124.742C128.066 85.7283 122.751 94.1415 115.258 93.9537ZM112.986 76.6767C113.268 74.1227 112.723 71.3246 112.028 68.7893C118.319 65.3715 124.685 70.2729 126.413 76.6767H112.986Z" fill="#282828"/>
</g>
<g id="Group_4">
<path id="Vector_3" d="M65.1549 53.0335C65.0986 53.3715 65.0422 54.0476 65.0798 54.7987C65.0422 54.1415 65.061 53.5217 65.1549 52.9771C65.1737 52.9771 65.1737 53.0147 65.1549 53.0335Z" fill="#282828"/>
</g>
<g id="Group_5">
<path id="Vector_4" d="M62.8263 52.6016C62.8075 52.6767 62.8075 52.7706 62.7887 52.8645C62.8075 52.7142 62.8075 52.6767 62.8263 52.6016Z" fill="#282828"/>
</g>
<g id="Group_6">
<path id="Vector_5" d="M59.5775 68.8832C59.3897 69.1837 59.3146 69.4466 59.108 69.6908C59.2395 69.4091 59.4085 69.1462 59.5775 68.8832Z" fill="#282828"/>
</g>
</g>
<g id="Group_7">
<path id="Vector_6" d="M152.779 96.6767H11.2207C10.5446 96.6767 10 96.1321 10 95.456C10 94.78 10.5446 94.2354 11.2207 94.2354H152.779C153.455 94.2354 154 94.78 154 95.456C154 96.1321 153.455 96.6767 152.779 96.6767Z" fill="#282828"/>
</g>
<g id="Group_8">
<path id="Vector_7" d="M126.507 30.0288H114.995C112.404 30.0288 110.282 27.9255 110.244 25.3339V25.24C110.244 22.6297 112.385 21.2588 114.131 20.6954C114.282 19.8316 114.695 18.5546 115.728 17.5029C116.892 16.3198 118.526 15.7189 120.592 15.7189C122.676 15.7189 124.329 16.3198 125.493 17.5029C126.413 18.4419 126.808 19.5311 126.977 20.3574C127.972 20.4889 129.437 20.8832 130.488 21.8973C131.258 22.6673 131.671 23.6813 131.671 24.8269C131.671 24.9208 131.671 25.0335 131.671 25.1274C131.54 27.8879 129.286 30.0288 126.507 30.0288ZM120.592 18.179C118.864 18.179 117.662 18.7424 117.005 19.8504C116.479 20.733 116.479 21.672 116.479 21.6907C116.479 22.2917 116.066 22.7987 115.465 22.8926C115.446 22.8926 112.685 23.4184 112.685 25.2588V25.3339C112.704 26.5734 113.737 27.5874 114.995 27.5874H126.507C127.953 27.5874 129.155 26.4607 129.211 25.0522C129.211 24.9771 129.211 24.9208 129.211 24.8457C129.211 24.3386 129.061 23.963 128.742 23.6438C127.972 22.8738 126.376 22.7236 125.869 22.7236C125.531 22.7236 125.211 22.5921 124.986 22.3668C124.761 22.1227 124.629 21.8034 124.629 21.4842C124.629 21.4842 124.629 20.1508 123.69 19.2119C123.033 18.517 121.981 18.179 120.592 18.179Z" fill="#282828"/>
</g>
<g id="Group_9">
<path id="Vector_8" d="M34.0939 82.0288H25.0986C22.8451 82.0288 20.8169 80.6015 20.0845 78.4982C19.7277 77.5217 19.5587 76.4325 19.5587 75.3433C19.5587 73.4278 21.6057 67.9067 27.8404 67.9067C32.2723 67.9067 34.1503 70.6485 34.7136 72.7893C35.7653 72.7893 37.2676 72.9771 38.3193 73.8785C39.108 74.5546 39.5212 75.5123 39.5212 76.6391C39.5212 76.733 39.5212 76.8457 39.5212 76.9396C39.3897 79.794 37.0047 82.0288 34.0939 82.0288ZM27.8404 70.348C23.0892 70.348 22 74.686 22 75.3433C22 75.9067 22.0751 76.7705 22.3944 77.6907C22.7888 78.8363 23.8967 79.5874 25.1174 79.5874H34.1127C35.6902 79.5874 37.0235 78.348 37.0798 76.8269C37.0798 76.7705 37.0798 76.6954 37.0798 76.6391C37.0798 76.0945 36.8921 75.8691 36.7418 75.7377C36.0282 75.118 34.3944 75.2119 33.8686 75.287C33.5305 75.3433 33.1737 75.2494 32.9108 75.0241C32.6479 74.7987 32.4789 74.4795 32.4601 74.1414C32.4413 73.7658 32.1033 70.348 27.8404 70.348Z" fill="#282828"/>
</g>
<g id="Group_10">
<path id="Vector_9" d="M146.75 33.6486C146.75 33.6486 146.557 37.8519 142.519 37.7966C147.137 37.7413 146.723 42.0553 146.723 42.0553C146.723 42.0553 146.584 37.8519 150.594 37.8519C148.658 37.8243 146.888 35.4737 146.75 33.6486Z" fill="#282828"/>
</g>
<g id="Group_11">
<path id="Vector_10" d="M125.231 49.2729C125.231 49.2729 125.037 53.4762 121 53.4209C125.618 53.3656 125.203 57.6796 125.203 57.6796C125.203 57.6796 125.065 53.4762 129.075 53.4762C127.111 53.4486 125.369 51.1257 125.231 49.2729Z" fill="#282828"/>
</g>
<g id="Group_12">
<path id="Vector_11" d="M22.231 26.3204C22.231 26.3204 22.0374 30.5238 18 30.4685C22.6181 30.4132 22.2033 34.7271 22.2033 34.7271C22.2033 34.7271 22.0651 30.5238 26.0748 30.5238C24.1391 30.4961 22.3693 28.1732 22.231 26.3204Z" fill="#282828"/>
</g>
</g>
</g>
</svg>
