<svg width="164" height="116" viewBox="0 0 164 116" fill="none" xmlns="http://www.w3.org/2000/svg">
<g id="Frame 34">
<g id="Group">
<path id="Vector" d="M110.162 64.163C110.123 64.2215 110.084 64.28 110.045 64.3385C110.084 64.2605 110.123 64.1825 110.162 64.085C110.143 64.124 110.162 64.1435 110.162 64.163Z" fill="#282828"/>
<path id="Vector_2" d="M25.352 80.5597V80.6571C25.3325 80.5207 25.313 80.3647 25.313 80.2282C25.3325 80.3257 25.352 80.4427 25.352 80.5597Z" fill="#282828"/>
<path id="Vector_3" d="M96.9047 42.6582C96.6707 39.0318 95.072 35.6004 92.4985 33.0659C83.4325 23.766 66.8799 30.5508 67.0553 43.6915C67.0358 51.1978 72.6704 57.4172 79.7866 58.47C89.1255 60.0102 97.7235 51.8411 96.9047 42.6582ZM69.5899 43.6915C69.8239 29.537 89.379 26.632 93.8242 39.9287C85.4212 40.1627 78.2269 46.772 77.3106 55.1751C72.7873 53.3034 69.5899 48.8582 69.5899 43.6915ZM93.8827 47.2789C92.206 53.0889 85.9671 57.0857 79.7866 55.8769C80.3715 48.3317 86.8639 42.4048 94.3506 42.4243C94.5261 44.062 94.3506 45.7777 93.8827 47.2789Z" fill="#282828"/>
<path id="Vector_4" d="M151.281 76.6798H146.719C147.167 76.6214 146.894 63.7536 146.972 63.1687C146.972 61.024 145.237 59.2888 143.092 59.2888H141.669C140.187 51.2757 133.149 45.1928 124.726 45.1928C130.595 31.1357 115.972 16.7667 102.032 22.8496C91.2896 11.795 70.5647 12.5554 60.6409 24.2534C50.7951 11.6391 22.1936 14.895 21.3162 32.8319C21.5502 45.6607 38.2588 51.4707 49.4694 48.1953C50.8536 49.677 52.3159 50.7688 53.7976 51.4707C53.9341 51.9971 54.0901 52.543 54.285 53.1279C46.7788 51.9191 39.2531 56.1499 36.2116 62.7008H25.352C23.2074 62.7008 21.4722 64.436 21.4722 66.5806V76.7773C21.3357 76.7383 21.1992 76.6993 21.0627 76.6993H11.8798C9.7352 76.6993 8 78.4345 8 80.5792V92.7646C8 94.9092 9.7352 96.6444 11.8798 96.6444C29.1149 96.6054 110.611 96.9564 129.367 96.6444H134.416C135.313 96.6444 136.132 96.352 136.775 95.845C137.438 96.352 138.238 96.6444 139.134 96.6444H151.32C153.464 96.6444 155.2 94.9092 155.2 92.7646V80.5792C155.161 78.4345 153.425 76.6798 151.281 76.6798ZM147.031 79.2144V84.7904H143.151V79.2144H147.031ZM53.1737 48.1758C52.0819 47.4349 51.5945 46.655 50.9511 45.0758C40.3839 49.5405 23.5388 43.5746 23.8118 32.8514C23.8118 25.3062 32.2148 19.1648 42.5285 19.1648C51.9259 19.3207 60.7969 23.9999 61.2453 32.8514C61.2648 36.3803 59.3931 39.5777 56.4492 42.0148C56.1177 42.6972 56.7611 43.945 57.0535 44.7054C57.7944 46.616 59.4126 48.0393 61.5573 48.5852C59.1007 50.3009 55.6693 50.1644 53.1737 48.1758ZM33.6771 65.2158H42.743V77.3037H33.6771V65.2158ZM15.8766 79.2144H19.7565V84.7904H15.8766V79.2144ZM25.352 92.7451C25.352 93.486 24.7281 94.0903 24.0067 94.0903H11.8213C11.0805 94.0903 10.4761 93.486 10.4761 92.7451V80.5597C10.5736 78.922 12.1723 79.2339 13.3226 79.2144V86.0577C13.3226 86.7596 13.888 87.325 14.5899 87.325C24.4942 87.208 21.9206 88.7873 22.2715 79.2144C23.3049 79.2729 24.9231 78.844 25.2935 80.2087C25.313 80.3257 25.3325 80.4232 25.3325 80.5402V92.7451H25.352ZM52.8423 92.7451C52.8423 93.486 52.2379 94.0903 51.497 94.0903H27.6526C28.101 94.0319 27.8281 81.1641 27.9061 80.5792C27.9061 78.415 26.0929 76.6798 23.9872 76.6993V66.5806C23.9872 65.8397 24.5916 65.2353 25.3325 65.2353H31.162V78.5905C31.162 79.2924 31.7274 79.8578 32.4293 79.8578H44.0298C44.7317 79.8578 45.2971 79.2924 45.2971 78.5905V65.2353C45.2776 65.2353 45.2776 65.2353 45.2581 65.2158H51.5165C52.2574 65.2158 52.8618 65.8202 52.8618 66.5611V92.7451H52.8423ZM55.0844 94.1683C55.2599 93.7199 55.3573 93.2325 55.3573 92.7256V66.5611C55.3573 64.4165 53.6221 62.6813 51.4775 62.6813H39.0387C42.0801 57.2807 49.0989 54.2002 55.3378 55.9159C59.4126 66.1127 76.7062 88.9042 81.2684 94.1683H55.0844ZM68.6346 73.2289C64.2673 66.873 59.9391 60.4002 57.2095 53.8298C56.9951 53.2839 56.8001 52.777 56.6441 52.2701C60.4655 52.9719 64.8522 49.677 65.4761 48.3902C65.7295 48.0003 65.7685 47.5129 65.5541 47.1034C65.3396 46.694 64.9302 46.4211 64.4623 46.4211C59.3931 46.2456 59.3347 43.2821 59.3152 42.8337C63.9749 38.4079 65.2031 31.8571 62.1032 26.4175C75.1269 11.4246 99.8682 16.0258 106.848 34.4501C108.661 39.0903 109.09 44.3544 108.096 49.3066C105.893 61.4335 87.6633 83.6791 82.0287 91.0294C80.6445 89.3527 74.581 81.7685 68.6346 73.2289ZM118.877 78.61C118.546 79.1949 118.331 79.8578 118.331 80.5597C118.429 81.359 118.078 93.8564 118.604 94.1683H82.7111C87.0784 89.0407 106.068 64.5529 109.675 53.3229C112.892 43.633 110.708 32.4225 103.923 24.8383C118.098 19.9251 129.659 37.0432 119.833 48.3512C119.755 48.4487 119.852 48.5852 119.969 48.5462C128.099 45.5632 137.477 51.0223 139.076 59.3083C137.945 59.4058 130.302 59.0354 129.425 59.6008C128.021 60.1857 127.046 61.57 127.046 63.1687C127.124 63.7926 126.832 76.5824 127.28 76.6798C126.891 76.6993 121.782 76.6214 121.568 76.7383C120.418 76.9333 119.443 77.6352 118.877 78.61ZM138.842 61.8234V67.3994H134.943V61.8234H138.842ZM130.127 79.2144V84.7904H126.228V79.2144H130.127ZM135.352 93.6809C135.118 93.9344 134.767 94.0903 134.397 94.0903H122.211C121.47 94.0903 120.866 93.486 120.866 92.7451V80.5597C120.964 78.9415 122.562 79.2339 123.713 79.2144C124.063 88.8068 121.509 87.208 131.394 87.325C132.096 87.325 132.662 86.7596 132.662 86.0577V79.2144C133.344 79.2729 134.845 78.9999 135.333 79.6238C135.138 80.7546 135.138 92.5306 135.352 93.6809ZM130.907 76.6798C130.166 76.6798 129.562 76.0755 129.562 75.3346V63.1492C129.659 61.531 131.258 61.8234 132.408 61.8039V68.6472C132.408 69.3491 132.973 69.9145 133.675 69.9145C143.58 69.7975 141.006 71.3963 141.377 61.8039C142.546 61.8624 144.321 61.414 144.437 63.1492V75.3346C144.437 76.0755 143.833 76.6798 143.092 76.6798H130.907ZM152.626 92.7451C152.626 93.486 152.022 94.0903 151.281 94.0903H139.095C138.725 94.0903 138.374 93.9344 138.14 93.6809C137.36 93.8759 137.906 80.9496 137.75 80.5792C137.848 78.961 139.446 79.2534 140.597 79.2339C140.948 88.8068 138.394 87.2275 148.278 87.3445C148.98 87.3445 149.546 86.7791 149.546 86.0772V79.2339C150.715 79.2924 152.509 78.844 152.607 80.5792C152.626 80.5597 152.626 92.7451 152.626 92.7451Z" fill="#282828"/>
<path id="Vector_5" d="M43.3864 42.2293C43.1525 42.4437 42.8405 42.5412 42.5286 42.5412C42.899 42.5217 43.0355 42.4437 43.3864 42.2293Z" fill="#282828"/>
<path id="Vector_6" d="M42.5286 42.5412C42.2167 42.5412 41.9047 42.4437 41.6708 42.2293C42.0412 42.4437 42.1777 42.5217 42.5286 42.5412Z" fill="#282828"/>
<path id="Vector_7" d="M47.4222 23.1226C45.57 23.1226 43.7179 23.805 42.5286 25.2867C41.3393 23.805 39.4871 23.1226 37.6349 23.1226C33.6966 23.1226 31.4545 25.7156 31.4545 30.2583C31.4545 32.9879 33.2677 35.8734 36.8355 38.8564C38.9022 40.5916 40.9688 41.8199 41.6902 42.2293C42.3141 42.6387 42.782 42.6387 43.4059 42.2293C47.0908 40.2991 54.0511 34.5866 53.6416 30.2583C53.6221 25.7351 51.3605 23.1226 47.4222 23.1226ZM42.5286 39.8117C39.6626 38.1155 33.9695 33.9822 33.9695 30.2778C33.9695 25.6766 36.7186 25.6766 37.6154 25.6766C38.9022 25.5597 41.4172 26.476 41.2808 29.3615C41.3198 31.0187 43.7179 31.0187 43.7568 29.3615C43.6204 26.476 46.1354 25.5597 47.4222 25.6766C48.3191 25.6766 51.0681 25.6766 51.0681 30.2778C51.0876 33.9627 45.4141 38.096 42.5286 39.8117Z" fill="#282828"/>
<path id="Vector_8" d="M110.026 64.3385C109.87 64.6699 109.714 64.9819 109.539 65.3133C109.675 64.9429 109.831 64.6309 110.026 64.3385Z" fill="#282828"/>
<path id="Vector_9" d="M117.513 75.6465C117.279 75.822 117.006 75.939 116.713 75.9195C117.006 75.9195 117.24 75.8025 117.513 75.6465Z" fill="#282828"/>
<path id="Vector_10" d="M116.713 75.9195C116.421 75.9195 116.128 75.822 115.914 75.6465C116.187 75.8025 116.401 75.9195 116.713 75.9195Z" fill="#282828"/>
<path id="Vector_11" d="M119.833 62.6033C118.682 62.6033 117.552 62.9737 116.713 63.7536C114.978 62.0769 111.488 62.2328 110.162 64.163C109.48 65.2158 109.168 66.2297 109.188 67.6139C109.265 71.7277 114.647 74.9057 116.128 75.7635C116.772 76.134 117.357 75.7635 117.922 75.4126C119.677 74.3598 124.258 71.2403 124.258 67.6139C124.239 64.475 122.601 62.6033 119.833 62.6033ZM116.713 73.1705C114.939 72.0786 111.703 69.6611 111.703 67.6139C111.703 65.4303 112.658 65.1378 113.574 65.1378C114.491 65.0794 115.524 65.7032 115.446 67.029C115.485 68.6862 117.922 68.6862 117.942 67.029C117.883 65.7032 118.897 65.0599 119.813 65.1378C120.749 65.1378 121.685 65.4303 121.685 67.6139C121.704 69.4856 118.858 71.8642 116.713 73.1705Z" fill="#282828"/>
<path id="Vector_12" d="M57.268 45.1148C57.2291 45.0563 57.2096 44.9783 57.1901 44.9198C57.2096 44.9978 57.2486 45.0563 57.268 45.1148Z" fill="#282828"/>
<path id="Vector_13" d="M21.4526 76.6798V76.7578C21.3162 76.7188 21.1797 76.6798 21.0432 76.6798H21.4526Z" fill="#282828"/>
</g>
</g>
</svg>
