<svg width="164" height="116" viewBox="0 0 164 116" fill="none" xmlns="http://www.w3.org/2000/svg">
<g id="Frame 33">
<g id="Group 1583">
<path id="Vector" d="M103.916 65.6438H90.0568C89.378 65.6438 88.8312 66.1888 88.8312 66.8654V84.6434C88.8312 85.3199 89.378 85.8649 90.0568 85.8649H103.916C104.594 85.8649 105.141 85.3199 105.141 84.6434V66.8654C105.141 66.1888 104.594 65.6438 103.916 65.6438ZM102.69 83.4219H91.2824V68.0869H102.69V83.4219Z" fill="#282828"/>
<path id="Vector_2" d="M160.18 65.3239C160.18 54.8939 151.677 46.4183 141.212 46.4183C130.747 46.4183 122.243 54.8939 122.243 65.3239C122.243 75.3405 130.106 83.5529 139.986 84.1919V93.889H131.03C130.181 91.352 127.768 89.5103 124.939 89.5103C123.035 89.5103 121.319 90.3371 120.15 91.6526V54.4804C120.961 52.3568 121.263 50.0077 120.961 47.6586C120.207 41.5697 118.868 30.6887 118.34 26.1972C117.68 20.5218 113.815 18.6425 111.854 18.4545C111.816 18.4545 111.778 18.4545 111.722 18.4545H47.2358C41.2397 18.4545 39.3164 23.5286 39.1279 26.2536C38.9959 27.4375 36.7898 46.6814 36.9029 51.0789C36.9595 52.8642 37.3178 54.4428 37.9777 55.8147V88.8713C36.6767 87.8941 35.0362 87.3115 33.2827 87.3115C29.3796 87.3115 26.1176 90.168 25.533 93.9078H22.3842V86.4846C30.3789 85.8644 36.6955 79.1742 36.6955 71.0369C36.6955 62.4862 29.719 55.5516 21.1585 55.5516C12.5793 55.5516 5.62158 62.505 5.62158 71.0369C5.62158 79.1742 11.9382 85.8457 19.9329 86.4846V93.9078H5.22561C4.54681 93.9078 4 94.4528 4 95.1293C4 95.8059 4.54681 96.3509 5.22561 96.3509H147.189C147.868 96.3509 148.415 95.8059 148.415 95.1293C148.415 94.4528 147.868 93.9078 147.189 93.9078H142.381V84.2107C152.318 83.5529 160.18 75.3405 160.18 65.3239ZM21.1963 65.6434C20.5175 65.6434 19.9706 66.1883 19.9706 66.8649V74.5136L15.6904 70.5483C15.2002 70.0973 14.4271 70.1161 13.9557 70.6047C13.4843 71.0933 13.5221 71.8638 14.0123 72.3336L19.9518 77.8587V84.0228C13.3146 83.4026 8.09165 77.8211 8.09165 71.0369C8.09165 63.8392 13.9746 57.9947 21.1774 57.9947C28.3991 57.9947 34.2632 63.858 34.2632 71.0369C34.2632 77.8211 29.0402 83.4026 22.403 84.0228V77.8587L28.3425 72.3336C28.8328 71.8638 28.8705 71.0933 28.3991 70.6047C27.9465 70.1161 27.1546 70.0785 26.6644 70.5483L22.3842 74.5136V66.8649C22.4219 66.1883 21.8751 65.6434 21.1963 65.6434ZM28.0785 93.889C28.6442 91.5023 30.7749 89.7358 33.3392 89.7358C35.3568 89.7358 37.1103 90.8258 38.0343 92.4607C38.204 92.7426 38.336 93.0621 38.4491 93.3816C38.5057 93.5507 38.5622 93.7199 38.5999 93.889H28.0785ZM88.6803 20.8788H99.8428L101.672 46.174L101.841 48.617L102.011 50.9849C101.709 53.2025 100.39 59.8176 95.11 59.8176C89.9436 59.8176 88.7745 51.5863 88.6803 50.8346V20.8788ZM72.6342 48.617L72.7096 46.174L73.5015 20.8788H86.229V50.797C86.0971 51.6239 84.7017 58.9719 79.441 58.9719C74.1803 58.9719 72.7285 52.8078 72.5399 51.8682L72.6342 48.617ZM56.211 48.617L56.3807 46.174L58.1343 20.8788H71.0692L70.2773 46.174L70.2018 48.617L70.1076 51.7742C69.8247 52.7139 67.7695 58.784 62.7727 58.5021C57.7195 58.2202 56.2487 52.3004 56.0413 51.2856L56.211 48.617ZM39.6181 46.174C40.1838 38.7696 41.5791 26.6294 41.598 26.4603C41.598 26.4415 41.598 26.4227 41.598 26.4039C41.598 26.3851 41.7111 24.9193 42.503 23.5098C43.4835 21.7621 45.0862 20.8788 47.2546 20.8788H55.6642L53.9106 46.174L53.7409 48.617L53.5712 51.1729C53.3261 52.0749 51.2331 59.2914 46.6701 58.7464C43.3327 58.3517 41.466 56.9047 40.4478 55.1757C39.6747 53.8602 39.4107 52.3568 39.373 50.9849C39.3542 50.0453 39.4484 48.2976 39.6181 46.174ZM41.0512 93.889L41.07 93.8702C41.6168 93.3064 42.371 92.9305 43.2384 92.9305C44.1058 92.9305 44.8788 93.3064 45.4256 93.889H41.0512ZM75.4625 93.889H53.7598V65.3239H75.4625V93.889ZM117.699 93.889H77.9137V64.1023C77.9137 63.4258 77.3669 62.8808 76.6881 62.8808H52.5342C51.8554 62.8808 51.3086 63.4258 51.3086 64.1023V93.889H48.254C47.4432 91.8969 45.5011 90.4875 43.2195 90.4875C42.2202 90.4875 41.2586 90.7694 40.4478 91.2392V58.8779C41.9751 60.0995 43.9738 60.9076 46.3684 61.1895C46.6513 61.227 46.9152 61.2458 47.1981 61.2458C51.0823 61.2458 53.4392 57.8443 54.7403 55.0818C55.947 57.6376 58.2851 60.7196 62.6219 60.9639C67.1095 61.2082 69.7493 58.0886 71.1635 55.514C72.5211 58.4269 75.1231 61.4526 79.441 61.4526C82.6842 61.4526 85.3051 59.6109 87.0587 56.1342C87.153 55.9463 87.2472 55.7583 87.3227 55.5704C88.454 58.69 90.7167 62.2982 95.11 62.2982C99.8993 62.2982 102.275 58.7276 103.444 55.4952C104.971 58.4081 107.781 61.3962 112.269 61.227C114.305 61.1519 116.153 60.231 117.699 58.5585V93.889ZM117.699 54.0106C117.454 54.5744 117.171 55.1194 116.832 55.6268C115.531 57.6188 113.966 58.6712 112.174 58.7276C106.97 58.9343 104.689 53.0146 104.462 50.9098V50.891L104.293 48.5983L104.123 46.1552L102.294 20.86H111.665C112.137 20.9352 115.361 21.6305 115.908 26.4603C116.379 30.5571 117.529 39.916 118.302 46.174C118.378 46.7941 118.453 47.3955 118.529 47.9593C118.811 50.0641 118.51 52.1501 117.699 54.0106ZM121.545 93.889C122.243 92.7238 123.506 91.9533 124.958 91.9533C126.41 91.9533 127.674 92.7238 128.352 93.889H121.545ZM141.212 58.9531C140.533 58.9531 139.986 59.4981 139.986 60.1746V70.3228L134.198 64.948C133.707 64.497 132.934 64.5158 132.463 65.0044C132.01 65.493 132.029 66.2635 132.519 66.7333L139.986 73.6679V81.7488C131.445 81.1287 124.694 74.0062 124.694 65.3239C124.694 56.2469 132.105 48.8614 141.212 48.8614C150.319 48.8614 157.729 56.2469 157.729 65.3239C157.729 73.9874 150.979 81.1099 142.437 81.7488V73.6679L149.904 66.7333C150.394 66.2823 150.432 65.5118 149.961 65.0044C149.489 64.5158 148.716 64.4782 148.226 64.948L142.437 70.3228V60.1746C142.437 59.4981 141.891 58.9531 141.212 58.9531Z" fill="#282828"/>
<path id="Vector_3" d="M41.0691 93.8869H41.0511L41.0691 93.869C41.0691 93.869 41.0691 93.869 41.0691 93.8869Z" fill="#282828"/>
<path id="Vector_4" d="M70.8618 81.8426C71.9032 81.8426 72.7474 81.0013 72.7474 79.9634C72.7474 78.9255 71.9032 78.0841 70.8618 78.0841C69.8204 78.0841 68.9763 78.9255 68.9763 79.9634C68.9763 81.0013 69.8204 81.8426 70.8618 81.8426Z" fill="#282828"/>
</g>
</g>
</svg>
